<svg width="22" height="20" viewBox="0 0 22 20" fill="none" xmlns="http://www.w3.org/2000/svg">
<path d="M20.3094 0.953125H1.69063C0.917188 0.953125 0.265625 1.57656 0.265625 2.35V15.6156C0.265625 16.3891 0.917188 17.0312 1.69063 17.0312H7.71875V18.1094H5.53906C5.41474 18.1094 5.29551 18.1588 5.20761 18.2467C5.1197 18.3346 5.07031 18.4538 5.07031 18.5781C5.07031 18.7024 5.1197 18.8217 5.20761 18.9096C5.29551 18.9975 5.41474 19.0469 5.53906 19.0469H16.4328C16.5571 19.0469 16.6764 18.9975 16.7643 18.9096C16.8522 18.8217 16.9016 18.7024 16.9016 18.5781C16.9016 18.4538 16.8522 18.3346 16.7643 18.2467C16.6764 18.1588 16.5571 18.1094 16.4328 18.1094H14.2812V17.0312H20.3094C21.0828 17.0312 21.7344 16.3891 21.7344 15.6156V2.35C21.7344 1.57656 21.0828 0.953125 20.3094 0.953125ZM13.3438 18.1094H8.65625V17.0312H13.3438V18.1094ZM20.7969 15.6156C20.7926 15.7427 20.7396 15.8633 20.6489 15.9523C20.5581 16.0413 20.4365 16.092 20.3094 16.0938H1.69063C1.56349 16.092 1.44191 16.0413 1.35114 15.9523C1.26036 15.8633 1.20735 15.7427 1.20312 15.6156V13.75H20.7969V15.6156ZM1.20312 12.8125V2.35C1.20312 2.09219 1.43281 1.89062 1.69063 1.89062H20.3047C20.5625 1.89062 20.7922 2.09219 20.7922 2.35V12.8125H1.20312Z" fill="#13161D" fill-opacity="0.6"/>
<path d="M9.92188 15.1562H12.0781C12.2024 15.1562 12.3217 15.1069 12.4096 15.019C12.4975 14.931 12.5469 14.8118 12.5469 14.6875C12.5469 14.5632 12.4975 14.444 12.4096 14.356C12.3217 14.2681 12.2024 14.2188 12.0781 14.2188H9.92188C9.79755 14.2188 9.67833 14.2681 9.59042 14.356C9.50251 14.444 9.45312 14.5632 9.45312 14.6875C9.45312 14.8118 9.50251 14.931 9.59042 15.019C9.67833 15.1069 9.79755 15.1562 9.92188 15.1562Z" fill="#13161D" fill-opacity="0.6"/>
</svg>
