<svg width="20" height="16" viewBox="0 0 20 16" fill="none" xmlns="http://www.w3.org/2000/svg">
<path d="M17 0H3C1.34387 0.0018311 0.0018311 1.34387 0 3V13C0.0018311 14.6561 1.34387 15.9982 3 16H17C18.6561 15.9982 19.9982 14.6561 20 13V3C19.9982 1.34387 18.6561 0.0018311 17 0ZM3 1H17C17.3701 1.00049 17.7122 1.10815 18.0094 1.28357L11.0605 8.23242C10.4741 8.81647 9.52588 8.81647 8.93939 8.23242L1.99054 1.28357C2.28778 1.10815 2.62994 1.00049 3 1ZM19 13C18.9986 14.104 18.104 14.9986 17 15H3C1.896 14.9986 1.0014 14.104 1 13V3C1.00049 2.62994 1.10815 2.28784 1.28357 1.9906L8.23242 8.93945C8.70081 9.40875 9.33698 9.672 10 9.6709C10.663 9.67194 11.2991 9.40875 11.7675 8.93945L18.7164 1.99054C18.8918 2.28778 18.9995 2.62994 19 3V13Z" fill="#242424"/>
</svg>
