<svg width="16" height="17" viewBox="0 0 16 17" fill="none" xmlns="http://www.w3.org/2000/svg">
<path d="M7 0.5C3.14 0.5 0 3.64 0 7.5C0 11.36 3.14 14.5 7 14.5C8.75 14.5 10.348 13.849 11.576 12.783L15.143 16.35C15.1891 16.3978 15.2443 16.4358 15.3053 16.4621C15.3663 16.4883 15.4319 16.502 15.4983 16.5026C15.5647 16.5032 15.6305 16.4906 15.692 16.4654C15.7534 16.4403 15.8093 16.4031 15.8562 16.3562C15.9031 16.3093 15.9403 16.2534 15.9654 16.192C15.9906 16.1305 16.0032 16.0647 16.0026 15.9983C16.002 15.9319 15.9883 15.8663 15.9621 15.8053C15.9358 15.7443 15.8978 15.6891 15.85 15.643L12.283 12.076C13.3895 10.8083 13.9995 9.18271 14 7.5C14 3.64 10.86 0.5 7 0.5ZM7 1.5C10.32 1.5 13 4.18 13 7.5C13 10.82 10.32 13.5 7 13.5C3.68 13.5 1 10.82 1 7.5C1 4.18 3.68 1.5 7 1.5Z" fill="black"/>
</svg>
