<svg width="20" height="22" viewBox="0 0 20 22" fill="none" xmlns="http://www.w3.org/2000/svg">
<path d="M0.292069 7.85964C0.73511 6.49063 1.46308 5.23099 2.42807 4.16364C2.50786 4.07545 2.61207 4.01297 2.72744 3.98413C2.84282 3.95528 2.96416 3.96138 3.07607 4.00164L5.37767 4.82484C5.54152 4.88335 5.71613 4.90552 5.88941 4.88984C6.06268 4.87415 6.23048 4.82097 6.38116 4.73399C6.53184 4.64701 6.6618 4.5283 6.76204 4.38609C6.86228 4.24389 6.93039 4.08159 6.96167 3.91044L7.40087 1.50324C7.42208 1.38605 7.47768 1.27784 7.5606 1.19236C7.64351 1.10688 7.74999 1.04801 7.86647 1.02324C9.2727 0.7237 10.7262 0.7237 12.1325 1.02324C12.2487 1.04822 12.3549 1.10718 12.4376 1.19265C12.5203 1.27811 12.5757 1.38621 12.5969 1.50324L13.0373 3.91044C13.0685 4.08159 13.1367 4.24389 13.2369 4.38609C13.3371 4.5283 13.4671 4.64701 13.6178 4.73399C13.7685 4.82097 13.9363 4.87415 14.1095 4.88984C14.2828 4.90552 14.4574 4.88335 14.6213 4.82484L16.9229 4.00164C17.0349 3.96152 17.1563 3.95562 17.2717 3.98468C17.3871 4.01374 17.4912 4.07645 17.5709 4.16484C18.5357 5.23184 19.2637 6.49106 19.7069 7.85964C19.7435 7.97268 19.7456 8.09404 19.7132 8.20834C19.6807 8.32263 19.615 8.42471 19.5245 8.50164L17.6585 10.0856C17.5259 10.1983 17.4194 10.3384 17.3464 10.4963C17.2734 10.6542 17.2356 10.8261 17.2356 11C17.2356 11.174 17.2734 11.3459 17.3464 11.5038C17.4194 11.6617 17.5259 11.8018 17.6585 11.9144L19.5245 13.4984C19.615 13.5754 19.6807 13.6774 19.7132 13.7917C19.7456 13.906 19.7435 14.0274 19.7069 14.1404C19.2638 15.5094 18.5359 16.7691 17.5709 17.8364C17.4911 17.9246 17.3869 17.9871 17.2715 18.0159C17.1561 18.0448 17.0348 18.0387 16.9229 17.9984L14.6213 17.1752C14.4574 17.1167 14.2828 17.0945 14.1095 17.1102C13.9363 17.1259 13.7685 17.1791 13.6178 17.2661C13.4671 17.3531 13.3371 17.4718 13.2369 17.614C13.1367 17.7562 13.0685 17.9185 13.0373 18.0896L12.5969 20.498C12.5755 20.6148 12.52 20.7227 12.4373 20.8079C12.3547 20.8931 12.2486 20.9519 12.1325 20.9768C10.7263 21.2764 9.27269 21.2764 7.86647 20.9768C7.74999 20.9521 7.64351 20.8932 7.5606 20.8077C7.47768 20.7222 7.42208 20.614 7.40087 20.4968L6.96287 18.0896C6.93159 17.9185 6.86348 17.7562 6.76324 17.614C6.663 17.4718 6.53304 17.3531 6.38236 17.2661C6.23168 17.1791 6.06388 17.1259 5.89061 17.1102C5.71733 17.0945 5.54272 17.1167 5.37887 17.1752L3.07607 17.9984C2.96405 18.0386 2.84263 18.0445 2.72725 18.0154C2.61186 17.9863 2.50773 17.9236 2.42807 17.8352C1.4632 16.7683 0.73523 15.509 0.292069 14.1404C0.255626 14.0273 0.253622 13.9058 0.28631 13.7915C0.318998 13.6772 0.384906 13.5752 0.475669 13.4984L2.34047 11.9144C2.47303 11.8018 2.57951 11.6617 2.65253 11.5038C2.72555 11.3459 2.76338 11.174 2.76338 11C2.76338 10.8261 2.72555 10.6542 2.65253 10.4963C2.57951 10.3384 2.47303 10.1983 2.34047 10.0856L0.475669 8.50164C0.384906 8.42485 0.318998 8.32284 0.28631 8.20854C0.253622 8.09423 0.255626 7.9728 0.292069 7.85964ZM1.56527 7.85244L3.11807 9.17004C3.3836 9.39534 3.59691 9.67572 3.74322 9.99173C3.88952 10.3077 3.9653 10.6518 3.9653 11C3.9653 11.3483 3.88952 11.6923 3.74322 12.0083C3.59691 12.3243 3.3836 12.6047 3.11807 12.83L1.56407 14.1476C1.91473 15.0857 2.41968 15.9585 3.05807 16.73L4.97327 16.046C5.30105 15.929 5.65037 15.8847 5.99699 15.9161C6.34361 15.9476 6.67925 16.054 6.98063 16.2281C7.282 16.4022 7.54191 16.6398 7.74233 16.9243C7.94274 17.2089 8.07887 17.5336 8.14127 17.876L8.50727 19.8776C9.49446 20.0422 10.5021 20.0422 11.4893 19.8776L11.8553 17.8736C11.9174 17.5311 12.0534 17.2063 12.2538 16.9216C12.4542 16.637 12.7142 16.3994 13.0156 16.2254C13.3171 16.0514 13.6529 15.9451 13.9996 15.9139C14.3463 15.8827 14.6956 15.9274 15.0233 16.0448L16.9397 16.73C17.578 15.9585 18.083 15.0856 18.4337 14.1476L16.8809 12.83C16.615 12.605 16.4013 12.3247 16.2548 12.0086C16.1082 11.6926 16.0323 11.3484 16.0323 11C16.0323 10.6517 16.1082 10.3075 16.2548 9.99146C16.4013 9.67542 16.615 9.39511 16.8809 9.17004L18.4337 7.85244C18.083 6.91443 17.578 6.04161 16.9397 5.27004L15.0245 5.95404C14.6968 6.07105 14.3475 6.11541 14.001 6.08404C13.6544 6.05267 13.3189 5.94631 13.0175 5.77235C12.7161 5.59838 12.4562 5.36096 12.2557 5.07655C12.0553 4.79214 11.919 4.46754 11.8565 4.12524L11.4893 2.12244C10.5021 1.95784 9.49446 1.95784 8.50727 2.12244L8.14247 4.12524C8.0801 4.46779 7.94395 4.79267 7.74346 5.07733C7.54297 5.36199 7.28294 5.59962 6.98141 5.77373C6.67989 5.94784 6.34409 6.05426 5.99733 6.0856C5.65056 6.11694 5.30112 6.07246 4.97327 5.95524L3.05807 5.27004C2.4197 6.04161 1.91475 6.91443 1.56407 7.85244H1.56527ZM7.00007 11C7.00007 10.2044 7.31614 9.44133 7.87875 8.87872C8.44136 8.31611 9.20442 8.00004 10.0001 8.00004C10.7957 8.00004 11.5588 8.31611 12.1214 8.87872C12.684 9.44133 13.0001 10.2044 13.0001 11C13.0001 11.7957 12.684 12.5587 12.1214 13.1214C11.5588 13.684 10.7957 14 10.0001 14C9.20442 14 8.44136 13.684 7.87875 13.1214C7.31614 12.5587 7.00007 11.7957 7.00007 11ZM8.20007 11C8.20007 11.4774 8.38971 11.9353 8.72728 12.2728C9.06484 12.6104 9.52268 12.8 10.0001 12.8C10.4775 12.8 10.9353 12.6104 11.2729 12.2728C11.6104 11.9353 11.8001 11.4774 11.8001 11C11.8001 10.5226 11.6104 10.0648 11.2729 9.72724C10.9353 9.38968 10.4775 9.20004 10.0001 9.20004C9.52268 9.20004 9.06484 9.38968 8.72728 9.72724C8.38971 10.0648 8.20007 10.5226 8.20007 11Z" fill="#13161D" fill-opacity="0.6"/>
</svg>
